<?xml version="1.0" encoding="UTF-8" standalone="no"?>
<!-- Created with Inkscape (http://www.inkscape.org/) -->

<svg
   xmlns:dc="http://purl.org/dc/elements/1.1/"
   xmlns:cc="http://creativecommons.org/ns#"
   xmlns:rdf="http://www.w3.org/1999/02/22-rdf-syntax-ns#"
   xmlns:svg="http://www.w3.org/2000/svg"
   xmlns="http://www.w3.org/2000/svg"
   xmlns:sodipodi="http://sodipodi.sourceforge.net/DTD/sodipodi-0.dtd"
   xmlns:inkscape="http://www.inkscape.org/namespaces/inkscape"
   id="svg4190"
   version="1.1"
   inkscape:version="0.91 r13725"
   width="280"
   height="280"
   viewBox="0 0 280 280"
   sodipodi:docname="apee.svg"
   inkscape:export-filename="/home/sogal/Projets/apee/apee.png"
   inkscape:export-xdpi="17.615992"
   inkscape:export-ydpi="17.615992">
  <metadata
     id="metadata4196">
    <rdf:RDF>
      <cc:Work
         rdf:about="">
        <dc:format>image/svg+xml</dc:format>
        <dc:type
           rdf:resource="http://purl.org/dc/dcmitype/StillImage" />
        <dc:title />
      </cc:Work>
    </rdf:RDF>
  </metadata>
  <defs
     id="defs4194">
    <marker
       inkscape:stockid="Arrow2Lstart"
       orient="auto"
       refY="0.0"
       refX="0.0"
       id="Arrow2Lstart"
       style="overflow:visible"
       inkscape:isstock="true">
      <path
         id="path4298"
         style="fill-rule:evenodd;stroke-width:0.625;stroke-linejoin:round;stroke:#000000;stroke-opacity:1;fill:#ffe600;fill-opacity:1"
         d="M 8.7185878,4.0337352 L -2.2072895,0.016013256 L 8.7185884,-4.0017078 C 6.9730900,-1.6296469 6.9831476,1.6157441 8.7185878,4.0337352 z "
         transform="scale(1.1) translate(1,0)" />
    </marker>
  </defs>
  <sodipodi:namedview
     pagecolor="#ffffff"
     bordercolor="#666666"
     borderopacity="1"
     objecttolerance="10"
     gridtolerance="10"
     guidetolerance="10"
     inkscape:pageopacity="0"
     inkscape:pageshadow="2"
     inkscape:window-width="1600"
     inkscape:window-height="818"
     id="namedview4192"
     showgrid="false"
     inkscape:zoom="2.2535714"
     inkscape:cx="3.7705841"
     inkscape:cy="133.57759"
     inkscape:window-x="0"
     inkscape:window-y="27"
     inkscape:window-maximized="1"
     inkscape:current-layer="svg4190" />
  <path
     style="fill:#ffe600;fill-opacity:1"
     d="M 131,257.35945 C 101.03513,254.58379 74.205812,241.61739 53.431761,219.87132 32.674871,198.14322 21.718702,172.53205 20.333189,142.5 18.701247,107.12641 30.706413,75.35978 54.897811,51.039251 77.460829,28.355794 103.93387,16.701631 136.06616,15.306701 171.83803,13.75377 204.61968,26.924298 229.12106,52.692929 251.34988,76.071452 262.27651,103.71068 262.25257,136.5 262.22817,169.90592 250.39539,198.60461 227,222 c -17.45066,17.45066 -37.9832,28.50092 -62,33.36734 -7.93081,1.60698 -26.4462,2.69183 -34,1.99211 z m 33.5,-4.84847 C 234.88811,237.75343 276.23707,166.13782 253.49138,98.379593 243.16523,67.618529 218.33902,40.566546 188.66147,27.737408 173.87186,21.344094 162.70897,18.845766 146.31188,18.259289 129.64571,17.663189 119.49335,18.906212 106,23.19495 63.460891,36.715613 31.952197,72.717628 24.353708,116.48447 c -2.319471,13.36002 -1.429978,35.87238 1.919826,48.5893 5.219959,19.81663 14.396138,36.65687 28.021069,51.42462 17.620886,19.09888 42.188569,32.53293 66.705397,36.47569 4.125,0.66338 8.175,1.36892 9,1.56787 3.65058,0.88035 27.2366,-0.50813 34.5,-2.03097 z m -36,-26.5647 c -8.40447,-1.11879 -22.11587,-5.22078 -29,-8.67583 -17.707541,-8.88716 -35.408364,-28.0582 -45.272961,-49.0333 L 50.5,160.31235 l -4.220697,1.53979 c -2.321383,0.84689 -4.558719,1.20178 -4.971858,0.78864 -0.853618,-0.85362 3.420756,-22.67516 4.704075,-24.01525 1.147344,-1.1981 21.865917,13.45319 21.934187,15.51093 0.03934,1.18586 -1.184767,1.82226 -4.445707,2.31127 -3.078335,0.46162 -4.5,1.15814 -4.5,2.2047 0,3.29844 9.443044,19.56161 15.437552,26.58714 7.991638,9.36615 16.607709,15.90742 28.062448,21.30484 12.20325,5.75012 19.74923,7.53454 34.5,8.15832 32.34454,1.36779 59.73279,-11.91895 76.43413,-37.08015 5.86987,-8.84318 10.90091,-19.29748 9.65677,-20.0664 -0.42991,-0.2657 -2.65124,-0.78205 -4.93628,-1.14745 -2.92809,-0.46822 -4.13885,-1.14325 -4.1012,-2.28654 0.0665,-2.0194 20.84123,-16.63079 21.99235,-15.46777 0.97859,0.98871 4.95423,18.68224 4.95423,22.04876 0,2.72825 -1.84504,2.94544 -6.14259,0.72308 -1.6738,-0.86555 -3.12472,-1.42805 -3.22427,-1.25 -0.0996,0.17806 -1.74524,3.69229 -3.65707,7.80941 -13.50365,29.07998 -36.87824,49.4832 -64.15253,55.99748 -9.93998,2.3741 -25.66938,3.24827 -35.32354,1.96313 z m 33.5,-4.445 c 9.23767,-2.10911 22.15383,-8.00832 30.36875,-13.87037 12.92537,-9.22336 28.51199,-29.13092 34.24111,-43.73348 2.80036,-7.13765 3.42236,-7.59608 7.96373,-5.86945 1.48708,0.56539 2.87706,0.8547 3.08884,0.64293 0.21178,-0.21178 -0.41531,-4.03831 -1.39352,-8.50339 l -1.77858,-8.11834 -8.19231,5.85605 -8.19232,5.85606 3.98542,0.63729 c 2.19198,0.35051 4.24488,1.31343 4.56199,2.13983 0.77097,2.0091 -6.65785,17.31762 -12.07844,24.88997 -2.39046,3.33939 -7.21019,8.79742 -10.71049,12.12895 -16.37832,15.58864 -34.40718,23.04235 -58.36418,24.12963 -31.78921,1.44275 -58.774975,-10.80226 -77.104534,-34.98681 -5.405369,-7.132 -13.834565,-24.11349 -13.021313,-26.23279 0.302121,-0.78732 2.358159,-1.72073 4.568973,-2.07426 l 4.019663,-0.64277 -8.225916,-5.94035 -8.225916,-5.94035 -1.665587,8.31519 c -0.916073,4.57335 -1.514728,8.46899 -1.330345,8.65698 0.184383,0.18799 2.017351,-0.26201 4.073262,-1 3.224226,-1.15737 3.806187,-1.13875 4.233947,0.13544 0.272759,0.81248 2.646881,5.77384 5.275826,11.02525 18.226638,36.40832 48.5858,55.81039 85.40194,54.57906 6.05,-0.20235 14.375,-1.13847 18.5,-2.08027 z M 83.609127,117.52621 c -5.869191,-8.95752 -6.001935,-34.172992 -0.226304,-42.98772 1.657668,-2.529921 5.750585,-3.412004 8.227645,-1.773177 7.576461,5.0126 8.079579,37.289777 0.708214,45.435037 -2.391974,2.64311 -6.757408,2.30521 -8.709555,-0.67414 z m 8.572238,-5.20331 c 4.262265,-9.63556 3.024533,-31.522748 -2.07248,-36.648297 -1.674174,-1.683547 -1.94127,-1.699361 -3.437127,-0.203504 -6.12842,6.12842 -6.201876,33.865691 -0.10752,40.599881 2.172452,2.40053 3.200842,1.71433 5.617127,-3.74808 z m 44.937665,5.10129 C 131.11918,109.79662 130.5394,86.703665 136.0753,75.852405 137.78323,72.504582 138.49339,72 141.49727,72 c 4.20476,0 5.76365,2.05061 7.95187,10.460099 2.71437,10.431573 1.65358,25.849401 -2.30553,33.509011 -2.45076,4.74144 -6.9283,5.39136 -10.02458,1.45508 z m 9.78651,-9.41936 c 2.50268,-11.669584 0.56508,-28.458973 -3.73326,-32.348921 -1.72936,-1.565045 -1.95121,-1.557667 -3.46518,0.115243 C 137.34125,78.385389 135,88.443061 135,95.99217 c 0,7.52332 1.84129,15.59048 4.47639,19.61214 l 1.81061,2.76335 2.26205,-2.62978 c 1.24412,-1.44638 2.75454,-4.92626 3.35649,-7.73305 z m 42.70359,9.52138 C 185.28698,110.92977 183.71832,94.078819 186.37539,82.78849 188.30269,74.599103 190.26068,72 194.50273,72 c 3.01378,0 3.71265,0.501855 5.45503,3.917206 5.42378,10.631482 4.84144,33.983184 -1.03373,41.452244 -2.73763,3.48033 -7.08923,3.55356 -9.3149,0.15676 z m 8.64139,-5.35964 c 4.24032,-9.58596 2.9625,-31.359258 -2.14164,-36.491967 -1.67417,-1.683547 -1.94126,-1.699361 -3.43712,-0.203504 -5.91838,5.918379 -6.26479,32.691391 -0.51752,39.997851 2.46128,3.12902 3.50035,2.56615 6.09628,-3.30238 z"
     id="path4200"
     inkscape:connector-curvature="0" />
  <path
     inkscape:connector-curvature="0"
     id="path4245"
     d="m 144.06267,16.977508 c -9.66505,0.240664 -19.43315,-0.385422 -28.90008,1.932882 -6.86401,1.166173 -13.17697,4.307735 -19.832396,6.290409 -7.385789,3.646957 -14.846653,7.361528 -21.822014,11.768619 -8.823526,7.451083 -18.573397,14.077746 -25.198787,23.749713 -8.411174,10.393758 -15.374221,22.012343 -20.016195,34.560334 -2.83861,6.442195 -3.746793,13.363745 -5.538782,20.143135 -1.790684,18.21732 -1.484488,36.88301 2.817794,54.75023 2.044652,5.94671 4.826298,11.66776 6.904201,17.57121 4.041325,6.95249 7.791488,14.09168 12.891347,20.36624 6.593383,8.96366 14.821827,16.74936 23.512811,23.67014 8.834681,6.64772 18.238592,12.65196 28.806414,16.14036 7.140207,2.76463 14.409507,5.37581 21.978717,6.52302 9.79498,2.06067 19.88692,2.54123 29.82846,1.37196 6.86901,-0.18208 13.6867,-0.96358 20.22425,-3.13938 13.83297,-2.57035 26.3066,-9.63606 38.44192,-16.47423 9.20661,-7.00233 18.15878,-14.60482 25.61161,-23.47895 6.00797,-7.45575 11.45818,-15.36023 15.46608,-24.0963 5.14717,-8.67002 6.79926,-18.74778 9.91143,-28.21286 2.28835,-10.66706 2.15243,-21.73905 1.88459,-32.59745 -0.20509,-9.00629 -2.72966,-17.68452 -4.64112,-26.41245 -3.70426,-9.276448 -6.59673,-19.036716 -12.65383,-27.148602 -3.03813,-4.102539 -4.79313,-9.527944 -8.92165,-12.656273 -2.0001,-1.800786 -3.64544,-4.815467 -5.89624,-6.729347 -6.14643,-6.634491 -12.35621,-13.455817 -20.39807,-17.831862 -8.69576,-5.625264 -17.67096,-11.176686 -27.67957,-14.059564 -8.44599,-3.690521 -17.67571,-5.014255 -26.77625,-5.884979 -3.33236,-0.156128 -6.66971,-0.12693 -10.00464,-0.116005 z m -3.59244,56.817178 c 4.5795,-0.265788 6.5141,5.044752 6.8564,8.78683 2.20117,8.570233 1.80155,17.457894 0.38119,26.132524 -1.8069,2.90972 -2.13735,7.38708 -5.17356,9.31999 -4.21327,0.51301 -5.39368,-4.91561 -6.31512,-8.02841 -3.05255,-10.6736 -2.36813,-22.2631 1.32419,-32.623396 0.74244,-1.145971 1.20589,-3.624976 2.9269,-3.587538 z m -52.477077,0.05393 c 3.440098,-0.08764 4.796959,3.36113 5.7631,6.097709 1.037109,6.030208 2.146223,12.051749 1.619538,18.145859 0.204404,6.871236 -1.198218,14.144776 -5.416664,19.686906 -3.38746,1.63667 -6.261812,-2.03903 -6.434767,-5.18826 -1.672411,-7.79315 -4.087462,-15.770896 -1.90837,-23.754715 1.294092,-4.931824 1.057261,-11.119001 4.962737,-14.820807 0.44506,-0.187608 0.939194,-0.210278 1.414426,-0.166692 z m 105.787617,0.0086 c 4.36449,-0.400761 5.33222,4.946497 6.26562,8.142131 0.94132,4.823103 2.0111,9.574904 1.50521,14.467671 -0.38493,7.229682 0.10824,16.519312 -6.54639,21.265522 -3.78638,1.78572 -5.27772,-3.74086 -5.68027,-6.33564 -2.28817,-9.06268 -3.49958,-18.640307 -0.8979,-27.856885 1.17098,-3.229067 1.15962,-8.165128 4.78256,-9.637449 0.18882,-0.03001 0.38008,-0.04382 0.57117,-0.04535 z M 49.677471,142.25696 c 4.86078,2.85738 9.457424,6.35792 13.907682,9.91445 2.138332,1.36151 1.959992,2.53326 -0.692504,2.74182 -2.883654,0.34571 -6.016279,2.89219 -4.570525,6.04991 1.303726,5.20822 3.927797,9.80165 7.101535,14.05967 3.424717,5.31534 6.993738,10.67053 11.406089,15.18973 7.062203,6.43258 13.978169,13.39734 23.104587,16.85045 9.246815,4.48835 19.035195,8.20307 29.429245,8.5344 17.35793,1.71386 35.5424,0.15825 51.32937,-7.75573 6.88718,-2.68506 13.01021,-6.77693 18.36563,-11.84409 9.55067,-7.19499 15.8097,-17.62038 22.01297,-27.60809 0.57493,-3.68804 4.61863,-7.18999 3.03108,-10.98691 -1.7465,-2.44334 -5.10967,-2.21594 -7.64573,-3.19532 5.70177,-4.68839 11.85985,-10.52957 18.50762,-12.88671 1.50351,6.30515 4.14159,12.82836 4.07168,19.39501 -2.82289,-0.31293 -7.0472,-4.0649 -8.93637,-0.26842 -6.75861,12.48022 -13.04953,25.60351 -23.32678,35.68049 -8.05321,8.41852 -17.07194,15.7377 -27.72343,20.59626 -6.86262,3.2705 -14.32188,5.51457 -21.9262,6.43223 -8.51003,1.72238 -17.43745,1.58823 -25.95725,1.3323 -5.71006,-1.94288 -12.0814,-1.31024 -17.70666,-3.83579 -5.36356,-1.49238 -10.38154,-4.53155 -15.619871,-6.12939 -5.795425,-3.21637 -10.974351,-7.65761 -15.980334,-11.97871 -8.71709,-8.69229 -17.234051,-17.73043 -22.465946,-28.98271 -3.355183,-4.10199 -4.361147,-9.94649 -8.458351,-13.40638 -2.49385,-1.4978 -5.753598,1.14122 -7.876158,0.43879 1.245367,-6.61347 1.943984,-13.34074 3.924597,-19.80561 0.898007,0.48945 1.796015,0.9789 2.694024,1.46835 z m 48.592926,73.57454 c 0.07108,-0.26835 0.709827,-0.59274 0,0 z"
     style="opacity:1;fill:none;fill-opacity:1;stroke:none;stroke-width:1.0668236;stroke-miterlimit:4;stroke-dasharray:0, 1.06682356999999994, 2.13364714999999983, 3.20047072000000021, 4.26729428999999971, 5.33411786000000010, 6.40094144000000043, 7.46776500999999993, 8.53458857999999942, 9.60141216000000064, 10.66823572999999925, 11.73505929999999964, 12.80188287000000003, 13.86870644999999946, 14.93553001999999985;stroke-dashoffset:0;stroke-opacity:1" />
  <ellipse
     style="opacity:1;fill:#ffe600;fill-opacity:1;stroke:#000000;stroke-width:3.12850928;stroke-miterlimit:4;stroke-dasharray:none;stroke-dashoffset:0;stroke-opacity:1"
     id="path4251"
     cx="141.89047"
     cy="137.53462"
     rx="120.42406"
     ry="121.05161" />
  <ellipse
     style="opacity:1;fill:none;fill-opacity:1;stroke:#ff0021;stroke-width:3;stroke-miterlimit:4;stroke-dasharray:none;stroke-dashoffset:0;stroke-opacity:1"
     id="path4253"
     cx="88.483597"
     cy="95.816055"
     rx="7.530519"
     ry="22.277786" />
  <ellipse
     ry="22.277786"
     rx="7.530519"
     cy="95.816055"
     cx="88.483597"
     id="ellipse4255"
     style="opacity:1;fill:#000000;fill-opacity:1;stroke:#000000;stroke-width:3;stroke-miterlimit:4;stroke-dasharray:none;stroke-dashoffset:0;stroke-opacity:1" />
  <ellipse
     style="opacity:1;fill:#000000;fill-opacity:1;stroke:#000000;stroke-width:3;stroke-miterlimit:4;stroke-dasharray:none;stroke-dashoffset:0;stroke-opacity:1"
     id="ellipse4257"
     cx="140.56969"
     cy="95.816055"
     rx="7.530519"
     ry="22.277786" />
  <ellipse
     ry="22.277786"
     rx="7.530519"
     cy="95.188515"
     cx="193.91086"
     id="ellipse4259"
     style="opacity:1;fill:#000000;fill-opacity:1;stroke:#000000;stroke-width:3;stroke-miterlimit:4;stroke-dasharray:none;stroke-dashoffset:0;stroke-opacity:1" />
  <path
     style="color:#000000;font-style:normal;font-variant:normal;font-weight:normal;font-stretch:normal;font-size:medium;line-height:normal;font-family:sans-serif;text-indent:0;text-align:start;text-decoration:none;text-decoration-line:none;text-decoration-style:solid;text-decoration-color:#000000;letter-spacing:normal;word-spacing:normal;text-transform:none;direction:ltr;block-progression:tb;writing-mode:lr-tb;baseline-shift:baseline;text-anchor:start;white-space:normal;clip-rule:nonzero;display:inline;overflow:visible;visibility:visible;opacity:1;isolation:auto;mix-blend-mode:normal;color-interpolation:sRGB;color-interpolation-filters:linearRGB;solid-color:#000000;solid-opacity:1;fill:#000000;fill-opacity:1;fill-rule:nonzero;stroke:none;stroke-width:6.13807011;stroke-linecap:butt;stroke-linejoin:miter;stroke-miterlimit:4;stroke-dasharray:none;stroke-dashoffset:0;stroke-opacity:1;color-rendering:auto;image-rendering:auto;shape-rendering:auto;text-rendering:auto;enable-background:accumulate"
     d="m 48.847656,152.39453 c -10e-7,29.07508 18.148524,55.58697 46.871094,69.74666 28.72257,14.15968 63.83407,14.15967 92.55664,0 28.72257,-14.15969 46.87109,-40.67158 46.87109,-69.74666 l -2.58875,2.29472 c 0,25.88398 -23.12347,46.06487 -50.75451,57.96596 -28.79392,12.40195 -54.37025,11.48407 -83.607908,-0.91789 C 70.502553,199.99068 51.880146,178.73745 51.880147,152.85347 Z"
     id="path4274"
     inkscape:connector-curvature="0"
     sodipodi:nodetypes="cssccsscc" />
  <path
     sodipodi:type="star"
     style="opacity:1;fill:#000000;fill-opacity:1;stroke:#000000;stroke-width:5.07999992;stroke-miterlimit:4;stroke-dasharray:none;stroke-dashoffset:0;stroke-opacity:1"
     id="path4538"
     sodipodi:sides="3"
     sodipodi:cx="110.49128"
     sodipodi:cy="149.54041"
     sodipodi:r1="7.9996381"
     sodipodi:r2="3.9998193"
     sodipodi:arg1="0.98279372"
     sodipodi:arg2="2.0299913"
     inkscape:flatsided="true"
     inkscape:rounded="0"
     inkscape:randomized="0"
     d="m 114.92868,156.19651 -12.42045,-6.14125 11.5287,-7.68581 z"
     inkscape:transform-center-x="-0.2380925"
     inkscape:transform-center-y="-1.7901739"
     transform="matrix(0.8684364,-0.49580058,0.49580058,0.8684364,-119.95424,75.786928)" />
  <path
     transform="matrix(-0.76837106,-0.64000463,0.64000463,-0.76837106,222.29182,339.78767)"
     inkscape:transform-center-y="-0.54046602"
     inkscape:transform-center-x="0.28866515"
     d="m 114.92868,156.19651 -12.42045,-6.14125 11.5287,-7.68581 z"
     inkscape:randomized="0"
     inkscape:rounded="0"
     inkscape:flatsided="true"
     sodipodi:arg2="2.0299913"
     sodipodi:arg1="0.98279372"
     sodipodi:r2="3.9998193"
     sodipodi:r1="7.9996381"
     sodipodi:cy="149.54041"
     sodipodi:cx="110.49128"
     sodipodi:sides="3"
     id="path4540"
     style="opacity:1;fill:#000000;fill-opacity:1;stroke:#000000;stroke-width:5.07999992;stroke-miterlimit:4;stroke-dasharray:none;stroke-dashoffset:0;stroke-opacity:1"
     sodipodi:type="star" />
</svg>
